inDegrees=no
num_controls=7
num_derivatives=13
num_iterations=223
num_multipliers=7
num_parameters=0
num_slacks=7
num_states=26
objective=6.517028
objective_accelerations=0.713577
objective_balance=0.038997
objective_effort=0.559622
objective_height=5.133270
objective_ligament=0.071561
solver_duration=1941.482738
status=Solve_Succeeded
success=true
DataType=double
version=3
OpenSimVersion=4.4-2022-07-23-0e9fedc
endheader
time	/jointset/ground_pelvis/pelvis_tilt/value	/jointset/ground_pelvis/pelvis_tx/value	/jointset/ground_pelvis/pelvis_ty/value	/jointset/hip_r/hip_flexion_r/value	/jointset/hip_r/hip_adduction_r/value	/jointset/hip_r/hip_rotation_r/value	/jointset/back/lumbar_extension/value	/jointset/patellofemoral_r/patellar_flexion_r/value	/jointset/knee_r/knee_flexion_r/value	/jointset/knee_r/knee_adduction_r/value	/jointset/knee_r/knee_rotation_r/value	/jointset/ankle_r/ankle_angle_r/value	/jointset/subtalar_r/subtalar_angle_r/value	/jointset/ground_pelvis/pelvis_tilt/speed	/jointset/ground_pelvis/pelvis_tx/speed	/jointset/ground_pelvis/pelvis_ty/speed	/jointset/hip_r/hip_flexion_r/speed	/jointset/hip_r/hip_adduction_r/speed	/jointset/hip_r/hip_rotation_r/speed	/jointset/back/lumbar_extension/speed	/jointset/patellofemoral_r/patellar_flexion_r/speed	/jointset/knee_r/knee_flexion_r/speed	/jointset/knee_r/knee_adduction_r/speed	/jointset/knee_r/knee_rotation_r/speed	/jointset/ankle_r/ankle_angle_r/speed	/jointset/subtalar_r/subtalar_angle_r/speed	/forceset/tau_hip_flexion_r	/forceset/tau_hip_adduction_r	/forceset/tau_hip_rotation_r	/forceset/tau_knee_flexion_r	/forceset/tau_ankle_angle_r	/forceset/tau_subtalar_angle_r	/forceset/tau_lumbar_extension	lambda_cid13_p0	lambda_cid14_p0	lambda_cid14_p1	lambda_cid14_p2	lambda_cid14_p3	lambda_cid14_p4	lambda_cid14_p5	/jointset/ground_pelvis/pelvis_tilt/accel	/jointset/ground_pelvis/pelvis_tx/accel	/jointset/ground_pelvis/pelvis_ty/accel	/jointset/hip_r/hip_flexion_r/accel	/jointset/hip_r/hip_adduction_r/accel	/jointset/hip_r/hip_rotation_r/accel	/jointset/back/lumbar_extension/accel	/jointset/patellofemoral_r/patellar_flexion_r/accel	/jointset/knee_r/knee_flexion_r/accel	/jointset/knee_r/knee_adduction_r/accel	/jointset/knee_r/knee_rotation_r/accel	/jointset/ankle_r/ankle_angle_r/accel	/jointset/subtalar_r/subtalar_angle_r/accel	gamma_cid13_p0	gamma_cid14_p0	gamma_cid14_p1	gamma_cid14_p2	gamma_cid14_p3	gamma_cid14_p4	gamma_cid14_p5
1	-0.3220419392252388	-0.01315955409196311	0.6275599316629549	1.566001186448266	-0.2452270033876479	0.05767741388189086	-0.4363323129985824	1.480965603605374	1.480965603605376	0.02523294692945956	0.1745328397257806	0.4363273886540832	0.08557510956421314	-0.001970730592854137	0.002710209165936262	0.01614223438424885	-0.04067945173387023	-0.0006897242423917852	-0.0138386350065051	1.336950873579866e-05	-0.04789723960475679	-0.04789723960475582	-0.0004617203870550744	2.686203217658925e-06	-0.007223459437399503	-0.003450915413149166	-0.3030484563281424	0.0004072687047710578	0.01741365093569868	-0.5277302713981792	0.008066657637156754	0.004662290523453712	0.3141270822656341	-0.04306628137325509	-47.63693232227596	-5.976583005283136	1.02504726792566	20.14246119611914	-816.0624676664776	69.1371753166999	1.258419334099393	0.0184476221230517	2.00287799473878	-5.906476947407183	-0.09061123463267901	-1.342995458973092	-0.009143550243077303	-5.726768478556165	-5.726768478556082	0.2834905157553988	0.01111799347924549	-1.348407148333108	-0.6074902576912986	1.104502821095729e-09	9.47394158819e-10	1.540896644285177e-08	1.049007114188704e-08	-2.861830775029033e-09	-2.610513434738909e-09	2.053508412912148e-08
1.01	-0.3219992706370326	-0.01313157396766516	0.6278213173353037	1.565299994607658	-0.245238232422983	0.05747281804270867	-0.4363321028449016	1.480200557365101	1.480200557365099	0.02524308867456105	0.1745328719620062	0.43618766204485	0.08551052478022673	0.01050992590630959	0.002883945266899148	0.03612865664190697	-0.09954631352124681	-0.001553015939355094	-0.02707661895074822	1.47845211530653e-05	-0.1051092750131618	-0.1051092750131607	0.002489596852431842	3.209788055571836e-06	-0.02073700186089126	-0.009464704665970002	-0.302827579255261	0.0004469846490139203	0.01742772686720984	-0.5273194068804904	0.007958292094395398	0.004676966454615806	0.3139183279781053	-0.04308313591600431	-47.65115875037694	-5.968495731088433	1.018955424538167	20.18482517976845	-815.7144263823848	69.1042833262658	1.243710553050798	0.0165545018992492	1.995586804634724	-5.874900308394306	-0.0837245755101208	-1.31361328699121	0.002551615965729129	-5.718011467765746	-5.718011467765776	0.3008834906102228	-0.005556428988496877	-1.355099737847466	-0.5981147925677055	2.046883305819773e-09	2.374624017740609e-09	3.40839350109552e-08	2.155629922572829e-08	-7.642425166257554e-09	-5.075610519151136e-09	4.463261223734454e-08
1.02	-0.3218316311347915	-0.01310191290279424	0.6282823797229	1.564010512246374	-0.2452580016629446	0.05713595967911664	-0.4363323129985824	1.478863472691587	1.478863472691585	0.02528272982457091	0.1745328942400805	0.4359123456216836	0.08538584379701407	0.02302345221451272	0.00304639728053058	0.05607757743376936	-0.158337555868279	-0.002397765167596811	-0.04029113988864274	-7.309690715883409e-05	-0.1623049262528915	-0.1623049262528913	0.005438160594514328	6.945739102842431e-07	-0.0343414222239944	-0.01547015525839993	-0.3026067021824006	0.0004867005932576903	0.01744180279871433	-0.5269085423628036	0.007849926551636006	0.004691642385780289	0.3137095736905544	-0.04310829161331414	-47.67487184585484	-5.960323968138655	1.010856298175174	20.25912996513879	-815.5083843136331	69.07325037674956	1.264993295907286	0.01619080465675113	1.995377701579638	-5.891353059338305	-0.08690274088833812	-1.338302857703351	-0.02700283838843403	-5.723491644821094	-5.723491644821223	0.2829398162745012	0.01051023368255367	-1.366582736255393	-0.6058225256130825	2.979501294427905e-09	1.274856938047942e-09	5.057926648718111e-08	3.36419177620299e-08	-6.512158083510664e-09	-7.648179675478113e-09	6.417029259795487e-08
1.03	-0.3215390663522676	-0.01307047589865533	0.6289426710465309	1.562133739104089	-0.2452861220221614	0.05666713289677112	-0.4363323129985824	1.476954634922565	1.476954634922563	0.02535185762783301	0.1745328786946231	0.4355008035117338	0.08520127317288222	0.03545675841907363	0.003259950554681777	0.07596713618962798	-0.2169795417291468	-0.003223203633969338	-0.05346505622651795	0.0002140917085032979	-0.2194479804757017	-0.2194479804757015	0.008388355458370498	-3.234839520794504e-06	-0.04795497973179308	-0.02143096378764741	-0.3031158434063105	0.0005734526237207171	0.01747888068506849	-0.5259943061207849	0.007582370641493659	0.004736265138021743	0.3143173707467254	-0.04312784424497615	-47.74702386032083	-5.942067718050843	0.9947986936716532	20.08109008202212	-815.5244934854823	68.99908808859315	1.227587910771839	0.02677858281557598	1.98371023720446	-5.844991375292346	-0.07989090912074541	-1.305563221008894	0.07767615265135663	-5.707516037661764	-5.707516037661647	0.3012070740692678	-0.00574545687114559	-1.356942172714689	-0.5892429410094837	3.912019665728732e-09	1.493041753081769e-10	6.705235676859193e-08	4.573793824172398e-08	-5.321576087763991e-09	-1.022184548560014e-08	8.366144389991606e-08
1.04	-0.3211231507820923	-0.01303633516297055	0.6298014510126433	1.55967167209803	-0.2453224020679635	0.05606684151121127	-0.4363252253000919	1.474474805865984	1.47447480586598	0.02545051693026045	0.1745328436694424	0.4349534858437713	0.08495748787857212	0.04769360974529129	0.00358714358970181	0.09577530593009149	-0.2753963286232664	-0.004029702484703303	-0.06658406053156501	0.001345137968477682	-0.2765031837645452	-0.2765031837645444	0.01134446042735087	-3.201373560045933e-06	-0.06149653382649633	-0.02731308929405159	-0.3036249846302019	0.0006602046541860807	0.0175159585714174	-0.5250800698787671	0.007314814731348624	0.004780887890266325	0.3149251678029145	-0.04315581105532174	-47.82878057960395	-5.923778671803715	0.9767774840553524	19.9346970964273	-815.6845156284345	68.92726123162008	1.225702320238636	0.03891875683052046	1.979099898500617	-5.846313265988672	-0.0831148177606361	-1.32732045113773	0.1417686904740833	-5.705921458027768	-5.705921458027775	0.2841218372993467	0.01130280956094402	-1.352182053636306	-0.5900859210444395	4.942361878000321e-09	4.897559441108367e-10	8.521611687687225e-08	5.777066351829207e-08	-7.425394300784157e-09	-1.286719539740941e-08	1.06524537344844e-07
1.05	-0.3205858674936716	-0.01299828497152188	0.6308578442962691	1.556626642108911	-0.2453666326850985	0.05533568684497071	-0.4363022989604575	1.471424938065568	1.471424938065562	0.02557877182329841	0.1745328184477482	0.4342711366011497	0.08465533447178115	0.05972647249603465	0.004048884931261612	0.1154834658579758	-0.3335625012266342	-0.004811314728170043	-0.07963335023781465	0.00341403797095983	-0.3334484405193044	-0.3334484405193042	0.01430732577656096	-2.060024770464487e-06	-0.07495880100990775	-0.03309858034443096	-0.3040837999653666	0.0007383626832652676	0.01757790596205436	-0.5238402186252746	0.007161932600044678	0.004830329429628082	0.3155601155880324	-0.04318963010338851	-47.85394235417211	-5.888093585746216	0.9498217605801391	19.66844117717732	-815.5981747531606	68.84477001831058	1.186592663440501	0.05369840878821015	1.963688169664428	-5.794693567492489	-0.07490630382462041	-1.291706678654572	0.2655368570260583	-5.685538619868197	-5.685538619868296	0.3024968585375872	-0.005491683187357667	-1.341076366214656	-0.5699040159517286	5.975761085302246e-09	8.76020354524189e-10	1.034327104172422e-07	6.980141081976248e-08	-9.632162520328267e-09	-1.551478543739641e-08	1.294930039817396e-07
